<svg xmlns="http://www.w3.org/2000/svg" viewBox="0 0 100 100"><defs><linearGradient id="g" x1="0" y1="0" x2="1" y2="1"><stop stop-color="#18b8bd"/><stop offset="1" stop-color="#0aa77b"/></linearGradient><clipPath id="t"><path d="M50 5 95 86c2 4-1 8-6 8H11c-5 0-8-4-6-8L50 5Z"/></clipPath></defs><g clip-path="url(#t)"><rect width="100" height="100" fill="#1a88c6"/><path d="M50 4 96 88H54L38 57Z" fill="url(#g)"/><path d="M7 91 26 66 43 72 57 58 74 67 97 55v44H0Z" fill="#24b7b3"/><path d="M0 86c19-8 35-5 48 0 17 7 30 2 52-7v21H0Z" fill="#0d4b86"/><path d="m22 63 21-25 10 15 9-10 18 20-13-5-11 6-11-8-10 10Z" fill="#fff"/><path d="M15 72c15-5 27-5 39 0 12 5 22 4 34-1-10 9-25 11-38 6-11-4-22-4-35-1Z" fill="#fff" opacity=".95"/></g></svg>